{
    "asset" : {
        "generator" : "Khronos glTF Blender I/O v3.3.27",
        "version" : "2.0"
    },
    "scene" : 0,
    "scenes" : [
        {
            "name" : "Scene",
            "nodes" : [
                0
            ]
        }
    ],
    "nodes" : [
        {
            "mesh" : 0,
            "name" : "Strike Wyvern",
            "rotation" : [
                0.7071067094802856,
                0,
                0,
                0.7071068286895752
            ],
            "translation" : [
                -2.5918197631835938,
                0,
                0
            ]
        }
    ],
    "materials" : [
        {
            "doubleSided" : true,
            "name" : "MAT_TEX_X02_Wyvern",
            "pbrMetallicRoughness" : {
                "metallicFactor" : 0,
                "roughnessFactor" : 0.5
            }
        }
    ],
    "meshes" : [
        {
            "name" : "x02s-cpu-cp-canopyTop.004",
            "primitives" : [
                {
                    "attributes" : {
                        "POSITION" : 0,
                        "NORMAL" : 1,
                        "TEXCOORD_0" : 2
                    },
                    "indices" : 3,
                    "material" : 0
                }
            ]
        }
    ],
    "accessors" : [
        {
            "bufferView" : 0,
            "componentType" : 5126,
            "count" : 1286,
            "max" : [
                0.4687498211860657,
                6.157351493835449,
                0.810489296913147
            ],
            "min" : [
                -0.4687498211860657,
                -0.053181204944849014,
                -0.7032300233840942
            ],
            "type" : "VEC3"
        },
        {
            "bufferView" : 1,
            "componentType" : 5126,
            "count" : 1286,
            "type" : "VEC3"
        },
        {
            "bufferView" : 2,
            "componentType" : 5126,
            "count" : 1286,
            "type" : "VEC2"
        },
        {
            "bufferView" : 3,
            "componentType" : 5123,
            "count" : 5232,
            "type" : "SCALAR"
        }
    ],
    "bufferViews" : [
        {
            "buffer" : 0,
            "byteLength" : 15432,
            "byteOffset" : 0,
            "target" : 34962
        },
        {
            "buffer" : 0,
            "byteLength" : 15432,
            "byteOffset" : 15432,
            "target" : 34962
        },
        {
            "buffer" : 0,
            "byteLength" : 10288,
            "byteOffset" : 30864,
            "target" : 34962
        },
        {
            "buffer" : 0,
            "byteLength" : 10464,
            "byteOffset" : 41152,
            "target" : 34963
        }
    ],
    "buffers" : [
        {
            "byteLength" : 51616,
            "uri" : "X-02S.bin"
        }
    ]
}
